<svg width="794" height="515" viewBox="0 0 794 515" fill="none" xmlns="http://www.w3.org/2000/svg">
<g clip-path="url(#clip0_96_246)">
<path d="M637.175 67.2029L639.722 47.5111C640.169 44.0448 641.32 40.6974 643.108 37.6601C644.897 34.6228 647.289 31.9551 650.147 29.8094C653.004 27.6637 656.273 26.082 659.764 25.1548C663.256 24.2275 666.903 23.9728 670.497 24.4052C674.091 24.8377 677.562 25.9487 680.71 27.675C683.859 29.4012 686.624 31.7088 688.847 34.4659C691.071 37.2231 692.71 40.3757 693.67 43.7437C694.63 47.1117 694.892 50.6292 694.442 54.0951L691.895 73.7869C691.773 74.7266 691.268 75.5809 690.493 76.1625C689.718 76.7441 688.736 77.0054 687.761 76.8893L640.392 71.1897C639.417 71.0714 638.532 70.5852 637.929 69.8378C637.326 69.0904 637.055 68.1428 637.175 67.2029Z" fill="#2F2E41"/>
<path d="M659.865 73.0777C671.03 73.0777 680.08 64.349 680.08 53.5817C680.08 42.8143 671.03 34.0856 659.865 34.0856C648.701 34.0856 639.65 42.8143 639.65 53.5817C639.65 64.349 648.701 73.0777 659.865 73.0777Z" fill="#FFB8B8"/>
<path d="M633.046 48.3076C633.768 42.7744 636.737 37.7434 641.3 34.3184C645.864 30.8935 651.65 29.3542 657.389 30.0384L661.473 30.5298C667.21 31.2264 672.427 34.0895 675.978 38.4909C679.529 42.8922 681.125 48.4724 680.416 54.0072L680.365 54.4011L671.735 53.3627L669.819 45.0595L668.203 52.9377L663.742 52.4011L662.776 48.2117L661.96 52.1866L632.995 48.7015L633.046 48.3076Z" fill="#2F2E41"/>
<path d="M560.995 123.128C561.613 124.298 562.489 125.323 563.562 126.131C564.635 126.938 565.879 127.51 567.205 127.804C568.532 128.098 569.91 128.108 571.241 127.834C572.572 127.559 573.825 127.006 574.91 126.214L593.271 136.587L602.528 127.363L576.386 113.066C574.886 111.395 572.802 110.313 570.529 110.025C568.257 109.737 565.954 110.263 564.057 111.504C562.159 112.744 560.8 114.612 560.235 116.755C559.671 118.897 559.941 121.165 560.995 123.128Z" fill="#FFB8B8"/>
<path d="M621.172 141.767C607.628 141.767 583.796 135.92 582.477 135.593L582.06 135.49L585.811 117.175L622.212 124.109L641.987 97.2518L664.691 95.0258L664.057 95.8301C663.762 96.2049 634.496 133.361 629.941 139.594C628.792 141.167 625.509 141.767 621.172 141.767Z" fill="#3F3D56"/>
<path d="M624.802 210.509L624.261 210.259C624.145 210.206 612.639 204.808 606.679 194.271C600.747 183.783 628.514 139.293 630.456 136.206L630.485 122.078L640.473 96.0686L653.212 89.1247L642.275 113.736L624.802 210.509Z" fill="#3F3D56"/>
<path d="M612.041 362.363L599.866 362.362L594.074 317.073L612.043 317.074L612.041 362.363Z" fill="#FFB8B8"/>
<path d="M615.145 373.745L575.889 373.744V373.265C575.889 369.356 577.499 365.608 580.365 362.845C583.23 360.081 587.116 358.529 591.169 358.529H591.17L615.146 358.53L615.145 373.745Z" fill="#2F2E41"/>
<path d="M742.81 352.073L731.241 355.729L711.115 314.431L728.19 309.036L742.81 352.073Z" fill="#FFB8B8"/>
<path d="M749.436 361.957L712.131 373.745L711.977 373.29C710.715 369.576 711.035 365.531 712.866 362.044C714.696 358.558 717.888 355.915 721.739 354.698L721.74 354.698L744.524 347.498L749.436 361.957Z" fill="#2F2E41"/>
<path d="M719.238 344.669L684.532 288.789L655.234 229.087L628.869 281.823L618.396 350.126L581.666 350.618L581.811 350.064L638.019 134.667L682.04 141.01L680.037 169.034L681.23 170.671C691.174 184.295 701.456 198.382 695.559 213.567L712.277 261.441L749.283 341.157L719.238 344.669Z" fill="#2F2E41"/>
<path d="M640.03 181.35C633.651 181.35 626.374 174.326 630.149 162.333L629.905 162.162L638.973 123.521C631.059 112.605 641.494 103.596 642.471 102.792L647.452 94.1452L669.428 80.7038L680.547 169.804L680.383 169.956C672.352 177.366 645.381 181.35 640.03 181.35Z" fill="#007BFF"/>
<path d="M685.036 201.455C684.163 201.468 683.291 201.379 682.44 201.19C681.585 200.984 680.202 199.934 678.064 193.22C669.564 166.529 659.528 86.2195 666.819 78.3607L666.986 78.1807L678.957 80.1049C679.952 79.3966 685.174 75.8809 689.993 76.4923C690.985 76.6126 691.941 76.9279 692.802 77.4186C693.662 77.9093 694.41 78.5649 694.997 79.3451L695.08 79.4493L698.894 131.777L712.865 193.356L712.53 193.502C711.717 193.859 694.271 201.455 685.036 201.455Z" fill="#3F3D56"/>
<path d="M676.985 181.003C678.346 180.959 679.68 180.628 680.893 180.034C682.107 179.439 683.17 178.595 684.009 177.56C684.848 176.526 685.441 175.327 685.748 174.048C686.054 172.769 686.066 171.44 685.782 170.156L703.307 158.515L698.569 146.519L674.06 163.294C671.855 163.896 669.956 165.258 668.722 167.121C667.488 168.984 667.006 171.218 667.367 173.401C667.727 175.584 668.905 177.564 670.678 178.965C672.451 180.366 674.695 181.091 676.985 181.003Z" fill="#FFB8B8"/>
<path d="M697.524 167.843L681.914 156.803L703.857 127.946L687.018 99.2879L694.552 78.5121L695.038 79.4069C695.265 79.8236 717.752 121.138 721.675 127.759C725.756 134.647 698.941 166.184 697.798 167.522L697.524 167.843Z" fill="#3F3D56"/>
<path d="M544.258 229.37L257.433 238.746C250.343 238.97 243.452 236.473 238.269 231.802C233.087 227.132 230.037 220.67 229.788 213.833L225.065 79.4275C224.832 72.5904 227.422 65.9437 232.264 60.9455C237.107 55.9473 243.808 53.0058 250.896 52.7663L537.722 43.39C544.811 43.166 551.703 45.6632 556.886 50.3337C562.068 55.0042 565.118 61.4665 565.366 68.3031L570.09 202.709C570.322 209.546 567.733 216.192 562.89 221.191C558.048 226.189 551.347 229.13 544.258 229.37Z" fill="white"/>
<path d="M570.09 202.709L570.115 203.42C570.344 209.951 567.872 216.303 563.245 221.077C558.618 225.851 552.214 228.657 545.442 228.877L257.182 238.3C250.411 238.521 243.826 236.139 238.876 231.678C233.926 227.217 231.016 221.042 230.786 214.512L230.761 213.801L570.09 202.709Z" fill="#F2F2F2"/>
<path d="M286.931 94.6162C266.274 100.259 247.031 85.4139 243.261 71.1815L244.703 70.884C262.129 66.567 282.155 78.0306 286.931 94.6162Z" fill="#007BFF"/>
<path d="M491.162 190.698C486.508 190.851 482.761 189.637 480.022 187.091C473.832 181.335 473.803 169.853 473.78 160.627C473.774 157.943 473.767 155.407 473.609 153.289L473.607 153.257C473.483 149.111 475.06 145.085 477.995 142.054C480.93 139.023 484.987 137.232 489.284 137.069L527.864 135.807C532.512 135.655 536.255 136.867 538.992 139.41C545.182 145.161 545.215 156.64 545.241 165.864C545.249 168.554 545.256 171.094 545.416 173.217C545.547 177.368 543.972 181.402 541.035 184.44C538.098 187.477 534.036 189.274 529.733 189.437L491.162 190.698ZM475.227 153.193C475.388 155.362 475.395 157.918 475.401 160.623C475.424 169.554 475.451 180.669 481.147 185.965C483.592 188.238 486.85 189.275 491.106 189.136L529.675 187.875C533.545 187.729 537.199 186.116 539.843 183.386C542.487 180.657 543.908 177.031 543.797 173.298C543.634 171.153 543.627 168.586 543.619 165.868C543.594 156.939 543.562 145.827 537.867 140.536C535.425 138.267 532.17 137.231 527.919 137.37L489.341 138.631C485.475 138.779 481.825 140.39 479.183 143.116C476.541 145.842 475.119 149.463 475.227 153.193Z" fill="#3F3D56"/>
<path d="M278.458 96.3329C271.692 96.5145 265.008 94.8614 259.168 91.5617C250.615 86.8154 244.007 78.982 241.924 71.1195L241.715 70.3314L243.965 69.8667C261.651 65.4911 282.236 77.0554 287.16 94.1435L287.376 94.8927L286.6 95.1049C283.947 95.8307 281.214 96.2431 278.458 96.3329ZM243.718 71.5169C245.918 78.7201 252.076 85.8218 259.977 90.2063C267.62 94.5794 276.742 95.8727 285.368 93.8062C280.286 77.9022 260.974 67.2567 244.353 71.3855L243.718 71.5169Z" fill="#3F3D56"/>
<path d="M259.101 185.871C256.663 186.038 254.225 185.562 252.047 184.493C249.868 183.425 248.033 181.805 246.738 179.806C245.235 177.425 244.394 174.71 244.295 171.924C244.196 169.137 244.843 166.373 246.173 163.898C247.35 161.778 249.113 160.014 251.266 158.801C253.418 157.588 255.877 156.973 258.37 157.025L309.775 155.345C312.257 155.136 314.75 155.592 316.98 156.663C319.21 157.734 321.09 159.378 322.413 161.414C323.914 163.796 324.754 166.511 324.852 169.297C324.949 172.083 324.301 174.846 322.97 177.32C320.55 181.644 316.218 184.053 310.776 184.18L259.37 185.86C259.28 185.864 259.19 185.868 259.101 185.871ZM258.172 158.594C256.007 158.581 253.879 159.136 252.016 160.202C250.153 161.267 248.627 162.801 247.601 164.64C246.402 166.87 245.819 169.36 245.908 171.87C245.998 174.38 246.755 176.826 248.109 178.972C249.283 180.77 250.95 182.219 252.926 183.16C254.902 184.1 257.109 184.494 259.303 184.298L310.733 182.616C312.938 182.67 315.114 182.134 317.022 181.068C318.93 180.002 320.495 178.448 321.544 176.577C322.743 174.348 323.326 171.859 323.238 169.349C323.15 166.839 322.394 164.393 321.041 162.248C319.864 160.45 318.196 159 316.22 158.058C314.244 157.116 312.037 156.717 309.841 156.907L258.408 158.588C258.329 158.59 258.25 158.592 258.172 158.594Z" fill="#3F3D56"/>
<path d="M503.122 155.22L486.917 155.75C485.843 155.784 484.8 155.405 484.015 154.697C483.231 153.989 482.77 153.01 482.734 151.975C482.697 150.94 483.088 149.933 483.821 149.175C484.554 148.418 485.569 147.972 486.642 147.936L502.847 147.406C503.922 147.371 504.966 147.749 505.752 148.457C506.538 149.164 506.999 150.144 507.036 151.181C507.072 152.217 506.68 153.225 505.946 153.982C505.212 154.74 504.196 155.185 503.122 155.22Z" fill="#007BFF"/>
<path d="M503.561 167.723L487.356 168.253C486.824 168.271 486.293 168.188 485.794 168.008C485.295 167.828 484.837 167.555 484.448 167.204C484.058 166.854 483.744 166.432 483.523 165.965C483.303 165.497 483.18 164.992 483.162 164.478C483.144 163.965 483.231 163.453 483.418 162.972C483.606 162.491 483.889 162.05 484.253 161.675C484.618 161.299 485.055 160.997 485.54 160.785C486.025 160.573 486.549 160.455 487.082 160.438L503.287 159.909C503.819 159.891 504.35 159.974 504.849 160.154C505.348 160.334 505.806 160.607 506.195 160.957C506.585 161.308 506.899 161.729 507.12 162.197C507.34 162.665 507.463 163.17 507.481 163.683C507.499 164.197 507.412 164.709 507.225 165.19C507.037 165.671 506.754 166.112 506.39 166.487C506.026 166.862 505.588 167.164 505.103 167.376C504.618 167.589 504.094 167.706 503.561 167.723Z" fill="#007BFF"/>
<path d="M504.001 180.226L487.796 180.756C486.721 180.791 485.676 180.413 484.891 179.705C484.105 178.997 483.644 178.017 483.607 176.981C483.571 175.945 483.963 174.937 484.697 174.179C485.431 173.422 486.447 172.976 487.521 172.941L503.726 172.412C504.258 172.394 504.788 172.478 505.287 172.658C505.785 172.839 506.242 173.112 506.631 173.462C507.02 173.813 507.333 174.234 507.554 174.701C507.774 175.169 507.897 175.673 507.915 176.186C507.933 176.699 507.846 177.211 507.659 177.692C507.472 178.172 507.189 178.613 506.825 178.988C506.462 179.363 506.025 179.665 505.541 179.878C505.056 180.09 504.533 180.208 504.001 180.226Z" fill="#007BFF"/>
<path d="M531.48 154.293L515.275 154.823C514.743 154.841 514.212 154.758 513.713 154.578C513.214 154.398 512.756 154.125 512.367 153.774C511.977 153.424 511.663 153.002 511.443 152.535C511.222 152.067 511.099 151.562 511.081 151.048C511.063 150.535 511.15 150.023 511.337 149.542C511.525 149.061 511.808 148.62 512.172 148.245C512.537 147.869 512.974 147.567 513.459 147.355C513.944 147.143 514.468 147.025 515.001 147.009L531.206 146.479C531.738 146.461 532.268 146.545 532.766 146.726C533.265 146.906 533.722 147.179 534.11 147.53C534.499 147.88 534.813 148.301 535.033 148.768C535.253 149.236 535.376 149.74 535.394 150.254C535.412 150.767 535.325 151.278 535.138 151.759C534.951 152.239 534.668 152.68 534.305 153.055C533.941 153.43 533.505 153.733 533.02 153.945C532.535 154.157 532.012 154.276 531.48 154.293Z" fill="#007BFF"/>
<path d="M531.92 166.796L515.715 167.326C514.64 167.361 513.595 166.983 512.81 166.275C512.024 165.567 511.563 164.587 511.526 163.551C511.49 162.515 511.882 161.507 512.616 160.749C513.35 159.992 514.366 159.547 515.44 159.511L531.645 158.982C532.178 158.964 532.709 159.047 533.208 159.227C533.707 159.407 534.164 159.68 534.554 160.03C534.943 160.381 535.257 160.802 535.478 161.27C535.699 161.738 535.821 162.243 535.839 162.756C535.858 163.27 535.77 163.782 535.583 164.263C535.396 164.744 535.112 165.185 534.748 165.56C534.384 165.935 533.947 166.237 533.461 166.449C532.976 166.662 532.452 166.779 531.92 166.796Z" fill="#007BFF"/>
<path d="M532.359 179.299L516.154 179.828C515.622 179.847 515.091 179.763 514.592 179.583C514.093 179.403 513.635 179.13 513.246 178.78C512.856 178.429 512.542 178.008 512.321 177.54C512.101 177.073 511.978 176.568 511.96 176.054C511.942 175.54 512.029 175.028 512.216 174.547C512.403 174.066 512.687 173.626 513.051 173.25C513.415 172.875 513.853 172.573 514.338 172.361C514.823 172.149 515.347 172.031 515.88 172.014L532.084 171.484C532.616 171.467 533.147 171.551 533.645 171.731C534.144 171.911 534.6 172.185 534.989 172.535C535.378 172.886 535.692 173.307 535.912 173.774C536.132 174.241 536.255 174.746 536.273 175.259C536.291 175.772 536.204 176.284 536.017 176.764C535.83 177.245 535.547 177.686 535.183 178.061C534.82 178.436 534.383 178.738 533.899 178.951C533.414 179.163 532.891 179.281 532.359 179.299Z" fill="#007BFF"/>
<path d="M566.397 97.5615L227.067 108.654L227.122 110.217L566.452 99.1244L566.397 97.5615Z" fill="#3F3D56"/>
<path d="M544.258 229.37L257.433 238.746C250.343 238.97 243.452 236.473 238.269 231.802C233.087 227.132 230.037 220.67 229.788 213.833L225.065 79.4275C224.832 72.5904 227.422 65.9437 232.264 60.9455C237.107 55.9473 243.808 53.0058 250.896 52.7663L537.722 43.39C544.811 43.166 551.703 45.6632 556.886 50.3337C562.068 55.0042 565.118 61.4665 565.366 68.3031L570.09 202.709C570.322 209.546 567.733 216.192 562.89 221.191C558.048 226.189 551.347 229.13 544.258 229.37ZM250.951 54.3291C244.292 54.5541 237.998 57.3173 233.448 62.0126C228.899 66.7079 226.467 72.9517 226.685 79.3744L231.409 213.78C231.642 220.202 234.507 226.273 239.376 230.66C244.244 235.048 250.718 237.393 257.378 237.183L544.204 227.807C550.863 227.582 557.157 224.819 561.706 220.123C566.256 215.428 568.688 209.184 568.47 202.762L563.746 68.356C563.513 61.9338 560.648 55.8631 555.779 51.4757C550.911 47.0883 544.437 44.7425 537.777 44.9528L250.951 54.3291Z" fill="#3F3D56"/>
<path d="M133.301 196.115C133.233 194.74 132.854 193.396 132.19 192.178C131.526 190.96 130.593 189.897 129.456 189.065C128.32 188.232 127.008 187.65 125.614 187.359C124.219 187.068 122.775 187.076 121.383 187.381L108.475 169.836L95.5062 174.801L114.097 199.331C114.784 201.552 116.292 203.452 118.334 204.672C120.377 205.891 122.813 206.346 125.18 205.95C127.547 205.553 129.681 204.333 131.178 202.52C132.675 200.708 133.43 198.429 133.301 196.115Z" fill="#A0616A"/>
<path d="M108.142 194.815L69.0829 145.945L83.7181 101.584C84.7906 90.4316 92.0269 87.3173 92.3349 87.19L92.8045 86.9957L105.54 119.75L96.1892 143.798L119.14 181.026L108.142 194.815Z" fill="#3F3D56"/>
<path d="M243.79 44.1653C242.374 44.3365 241.014 44.8051 239.806 45.538C238.598 46.2709 237.572 47.2503 236.799 48.4072C236.026 49.5641 235.525 50.8704 235.332 52.2341C235.139 53.5978 235.259 54.9856 235.682 56.3L218.543 70.0688L224.679 82.1547L248.6 62.3826C250.842 61.5501 252.689 59.9534 253.793 57.8948C254.896 55.8363 255.177 53.4591 254.585 51.2136C253.992 48.9681 252.565 47.0103 250.576 45.7113C248.586 44.4122 246.172 43.8622 243.79 44.1653Z" fill="#A0616A"/>
<path d="M244.391 68.457L196.891 109.793L149.9 99.1503C138.288 98.9814 134.509 92.2641 134.354 91.9779L134.117 91.5413L166.992 76.7632L192.576 83.895L229.286 58.948L244.391 68.457Z" fill="#3F3D56"/>
<path d="M162.113 362.315H174.876L180.946 314.839L162.11 314.84L162.113 362.315Z" fill="#A0616A"/>
<path d="M199.489 373.743L159.379 373.745L159.378 358.799L185.75 358.798C189.393 358.798 192.888 360.193 195.464 362.678C198.041 365.163 199.489 368.533 199.489 372.047L199.489 373.743Z" fill="#2F2E41"/>
<path d="M111.104 362.315H123.867L129.938 314.839L111.102 314.84L111.104 362.315Z" fill="#A0616A"/>
<path d="M148.48 373.743L108.37 373.745L108.369 358.799L134.741 358.798C136.545 358.798 138.332 359.14 139.998 359.806C141.665 360.472 143.18 361.448 144.456 362.678C145.731 363.908 146.743 365.369 147.434 366.977C148.124 368.584 148.48 370.307 148.48 372.047L148.48 373.743Z" fill="#2F2E41"/>
<path d="M106.565 189.024L107.606 259.302L108.647 351.668L131.549 349.66L143 222.155L157.574 349.66H181.218L183.599 221.151L175.271 193.04L106.565 189.024Z" fill="#2F2E41"/>
<path d="M151.39 198.461C126.471 198.463 103.534 187.586 103.224 187.437L102.967 187.313L100.876 138.913C100.269 137.202 88.3286 103.454 86.3063 92.7268C84.2573 81.8588 113.953 72.3208 117.559 71.2053L118.378 62.4625L151.656 59.0042L155.873 70.191L167.812 74.5084C169.166 74.9983 170.286 75.9499 170.96 77.183C171.635 78.4162 171.817 79.8451 171.472 81.1991L164.837 107.223L181.042 193.323L177.554 193.469C169.298 196.904 160.379 198.606 151.39 198.461Z" fill="#3F3D56"/>
<path d="M136.321 53.4681C149.554 53.4681 160.281 43.1222 160.281 30.3599C160.281 17.5976 149.554 7.25171 136.321 7.25171C123.088 7.25171 112.361 17.5976 112.361 30.3599C112.361 43.1222 123.088 53.4681 136.321 53.4681Z" fill="#A0616A"/>
<path d="M116.913 52.7293C121.479 57.4203 129.96 54.9021 130.555 48.4934C130.601 47.9959 130.598 47.4951 130.544 46.9982C130.237 44.1594 128.537 41.5822 128.944 38.5849C129.036 37.8389 129.324 37.128 129.781 36.5195C133.42 31.8202 141.962 38.6213 145.396 34.3672C147.502 31.7587 145.026 27.6517 146.642 24.7362C148.775 20.8883 155.092 22.7865 159.053 20.6791C163.461 18.3345 163.197 11.8125 160.296 7.84547C156.758 3.00753 150.554 0.426017 144.427 0.0539748C138.301 -0.318067 132.216 1.27918 126.497 3.42894C119.998 5.87149 113.553 9.24714 109.554 14.7583C104.691 21.4604 104.223 30.4707 106.655 38.3076C108.135 43.0748 113.184 48.8985 116.913 52.7293Z" fill="#2F2E41"/>
<path d="M793.027 375H0.973039C0.714973 375 0.467476 374.901 0.284996 374.725C0.102516 374.549 0 374.31 0 374.061C0 373.812 0.102516 373.574 0.284996 373.398C0.467476 373.222 0.714973 373.123 0.973039 373.123H793.027C793.285 373.123 793.533 373.222 793.715 373.398C793.897 373.574 794 373.812 794 374.061C794 374.31 793.897 374.549 793.715 374.725C793.533 374.901 793.285 375 793.027 375Z" fill="#CACACA"/>
<path d="M441.688 504.254L453.183 504.253L458.652 461.49L441.686 461.491L441.688 504.254Z" fill="#FFB8B8"/>
<path d="M438.756 500.634L461.394 500.633C465.22 500.633 468.891 502.099 471.596 504.708C474.302 507.317 475.822 510.856 475.822 514.546V514.999L438.756 515L438.756 500.634Z" fill="#2F2E41"/>
<path d="M334.797 504.254L346.292 504.253L351.761 461.49L334.795 461.491L334.797 504.254Z" fill="#FFB8B8"/>
<path d="M331.864 500.634L354.503 500.633C358.329 500.633 361.999 502.099 364.705 504.708C367.41 507.317 368.93 510.856 368.931 514.546V514.999L331.865 515L331.864 500.634Z" fill="#2F2E41"/>
<path d="M446.27 287.244C446.27 287.244 455.919 312.502 454.54 323.137C453.162 333.772 464.189 408.219 462.811 414.866C461.432 421.513 464.189 454.747 462.811 460.065C461.432 465.383 466.679 471.734 463.923 477.052C461.166 482.369 457.297 493.3 457.297 493.3L439.378 491.97L436.621 477.347C436.621 477.347 428.35 476.018 429.729 468.041C431.107 460.065 422.837 406.889 422.837 406.889L399.404 332.443L366.322 400.242C366.322 400.242 364.943 448.1 360.808 453.418C356.673 458.736 364.943 473.359 360.808 478.676C356.673 483.994 352.537 493.3 352.537 493.3H331.861V482.665C331.861 482.665 319.455 476.018 331.861 456.077L340.244 336.323L348.514 281.818L446.27 287.244Z" fill="#2F2E41"/>
<path d="M394.885 120.085C409.104 120.085 420.63 108.968 420.63 95.2552C420.63 81.5421 409.104 70.4254 394.885 70.4254C380.666 70.4254 369.139 81.5421 369.139 95.2552C369.139 108.968 380.666 120.085 394.885 120.085Z" fill="#FFB8B8"/>
<path d="M416.794 93.5424C414.977 98.0189 413.16 102.495 411.344 106.972C409.11 112.475 406.552 118.363 401.317 121.434C394.854 125.226 386.222 123.377 379.97 119.269C374.346 115.575 370.029 110.309 367.599 104.179C365.169 98.0498 364.742 91.3497 366.376 84.9793C368.009 78.6088 371.625 72.873 376.737 68.5422C381.849 64.2115 388.213 61.4932 394.974 60.7526L395.233 65.2474L400.952 60.6242C401.375 61.3241 401.957 61.9225 402.654 62.3745C403.351 62.8264 404.145 63.1201 404.977 63.2336C405.809 63.347 406.656 63.2772 407.456 63.0294C408.256 62.7817 408.987 62.3623 409.595 61.803C408.092 64.8062 409.826 68.4691 412.33 70.7698C415.406 73.596 424.204 76.9927 423.839 82.045C423.596 85.4167 418.212 90.0484 416.794 93.5424Z" fill="#2F2E41"/>
<path d="M324.016 323.973C323.129 322.696 322.543 321.247 322.299 319.729C322.055 318.21 322.16 316.658 322.605 315.182C323.05 313.706 323.826 312.342 324.877 311.187C325.928 310.032 327.228 309.112 328.688 308.494L328.173 284.474L343.232 280.612L343.465 314.543C344.379 316.976 344.336 319.648 343.344 322.052C342.352 324.457 340.481 326.427 338.083 327.589C335.686 328.752 332.93 329.025 330.337 328.359C327.745 327.693 325.496 326.132 324.016 323.973Z" fill="#FFB8B8"/>
<path d="M375.76 135.431C375.76 135.431 395.71 125.811 414.553 132.224C433.395 138.638 443.37 146.121 443.37 146.121L431.178 208.12L447.804 291.498C447.804 291.498 362.459 285.084 354.701 291.498C346.942 297.912 346.942 284.015 346.942 284.015L353.592 204.913L341.4 154.672L375.76 135.431Z" fill="#3F3D56"/>
<path d="M459.965 325.395C458.741 324.41 457.757 323.178 457.081 321.787C456.404 320.395 456.053 318.877 456.051 317.34C456.049 315.803 456.396 314.284 457.068 312.891C457.74 311.497 458.721 310.263 459.942 309.274L452.456 286.36L465.785 278.576L475.885 311.079C477.471 313.166 478.208 315.742 477.956 318.319C477.704 320.895 476.481 323.293 474.518 325.057C472.556 326.822 469.991 327.831 467.308 327.893C464.626 327.956 462.013 327.067 459.965 325.395Z" fill="#FFB8B8"/>
<path d="M435.612 146.121H443.371C443.371 146.121 455.563 153.603 455.563 164.293C455.563 174.982 473.297 300.05 473.297 300.05L454.454 303.257L437.829 215.602L425.637 192.086L435.612 146.121Z" fill="#3F3D56"/>
<path d="M362.459 154.672H341.4C341.4 154.672 334.75 161.086 331.425 176.051C328.1 191.017 324.775 249.809 324.775 249.809L326.992 303.256H343.617L345.834 233.775L356.918 188.879L362.459 154.672Z" fill="#3F3D56"/>
</g>
<defs>
<clipPath id="clip0_96_246">
<rect width="794" height="515" fill="white"/>
</clipPath>
</defs>
</svg>
